<svg preserveAspectRatio="none" xmlns="http://www.w3.org/2000/svg" viewBox="0 0 455.77 292.74"><defs><style>.cls-1{fill:#050072;}.cls-2{fill:#ffaa14;}.cls-3{fill:#7ad278;}.cls-4{fill:#3fa9f5;}.cls-5{fill:#e62882;}</style></defs><title>m2</title><g id="Layer_2" data-name="Layer 2"><g id="Layer_1-2" data-name="Layer 1"><path class="cls-1" d="M319.64,23.53c-63.75-50.9-115.54-8.89-160.17,28.92-7.36,6.23-9.65,20.79-17.37,27.91-5.16,4.76-19.58.4-25.62,5.81-17.44,15.6-42.1,22.51-49,48.55-23.48,89,117.29,112,175.34,99.05C335.25,213.15,414.41,99.2,319.64,23.53Z"/><path class="cls-2" d="M119.36,159.62c8,80.42,94.45,66,145.32,61.12,12.57-1.21,24.75-10.95,35.88-12.22,7-.8,16.17,9.44,24.21,8.88,25.86-1.8,52.94,4,76.67-11.52,79.09-51.58,12.89-139.7-52.95-166.34C266.64,6.44,108,45.43,119.36,159.62Z"/><path class="cls-3" d="M250,244.93c74.32-44.45,23.68-94-12.86-130.87-8.06-8.13-27.81-13.77-32.06-17.74-3.5-3.27,1.14-16.66-3.52-21.11-19.35-18.46-25.63-35.68-53.09-45.7C72.07,1.66-8.55,76.55.73,154.06,13.76,262.88,169.15,293.29,250,244.93Z"/><path class="cls-4" d="M453.18,134.72C436.11,55.5,353,76.23,301.52,84.41c-11.76,1.87-23.63,12.71-34.34,14.77-7.07,1.36-17.05-8.24-25.12-7.09-25.24,3.63-53-.31-75,17C92.41,168,173,250.35,238.66,270.94,321.76,297,477.74,248.68,453.18,134.72Z"/><path class="cls-5" d="M288.11,281.29c83.47-34.86,55.49-122-19.1-139.91C316.85,47.85,157.07,33.33,106.7,75.56-31.6,191.49,160.74,334.49,288.11,281.29Z"/></g></g></svg>
