<svg xmlns="http://www.w3.org/2000/svg" viewBox="0 0 809.13 239"><defs><style>.cls-1{fill:#fff;}</style></defs><title>Asset 1</title><g id="Layer_2" data-name="Layer 2"><g id="Layer_1-2" data-name="Layer 1"><path class="cls-1" d="M91.39,60.68c0,27.29-17.23,43-47.88,43C8.45,103.68-3.75,84.17,1,57.94L36.5,52c-2.59,19.06.91,25,9.3,25,6.86,0,10.06-5.49,10.06-18.91V1.53H91.39Z"/><path class="cls-1" d="M200.87,58.86c0,30-16.16,44.83-48.64,44.83s-48.64-14.79-48.64-44.83V1.53h35.68V61.6c0,10.22,4.57,15.4,13,15.4,8.54,0,13.11-5.18,13.11-15.4V1.53h35.53Z"/><path class="cls-1" d="M305.46,16,289.91,38.12c-9.3-8.54-18.3-12-29.73-12-7.17,0-11.74,2.44-11.74,5.79,0,2.59,3.35,4.27,14.64,6.1,28.36,4.42,40.56,14,40.56,33.24,0,21.35-20.28,32.48-45,32.48-25.46,0-37.05-5.18-49.4-14.18L224.8,65c8.23,8.84,18.14,12.66,31.26,12.66,8.54,0,11.13-2,11.13-4.57,0-2.9-3.66-4.42-15.55-6.4C223.43,62.06,212,52.76,212,34.61,212,14,228.77,0,259.11,0,278.32,0,291.28,3.66,305.46,16Z"/><path class="cls-1" d="M409.29,27.6H377.88v74.56H342.36V27.6H310.79V1.53h98.5Z"/><path class="cls-1" d="M457,102.16H421.49V1.53H457Z"/><path class="cls-1" d="M521.81,103.68c-31.87,0-51.23-18.91-51.23-51.84S489.94,0,521.81,0c22.11,0,41.47,9,45.74,30.5l-30.5,11.89c-1.68-13.11-5.95-15.7-14.33-15.7-10.52,0-15.86,7.78-15.86,25.16,0,17.23,4.88,25.16,15.55,25.16,9.76,0,13.26-4.12,14.49-13.72l31.41,8.08C562.67,95,544.84,103.68,521.81,103.68Z"/><path class="cls-1" d="M663.91,76.08v26.07H578.53V1.53h83.56V27.6h-48V40.1h38.73V64.19H614.05V76.08Z"/><path class="cls-1" d="M805.1,103.68c-12.5,0-20.13-1.22-30.19-8.08-6.86,5.19-16.31,8.08-28.21,8.08-21.8,0-37.51-8.54-37.66-28.21-.15-7.78,3.2-19.67,17.53-25-7.47-9.15-8.84-14.64-8.84-22.57C717.73,14.18,728.4,0,753.11,0c25.62,0,34.46,13.88,34.46,25.92,0,12.2-7.62,22.41-22.11,27.45l4.42,4.27c3.2,3,5.95,5.79,8.54,8.23a44.62,44.62,0,0,0,2-13.88h22.26c-.46,10.52-3.51,19.36-9.15,26.07,4.12,2,8.08,2.44,13.42,1.37ZM757.53,81.42l-3.2-3.05c-5.18-4.88-9.76-9.15-13.57-13-1.83,2.29-2.29,4.57-2.29,7.62,0,5.34,4.42,8.84,12.81,8.84A41.8,41.8,0,0,0,757.53,81.42ZM747,29.43c0,3.2,1.37,5.95,6.56,11.74,5.95-5,7-8.69,7-13.11A6.16,6.16,0,0,0,754,21.5C749.9,21.5,747,24.09,747,29.43Z"/><path class="cls-1" d="M133.47,237.48h-31V202.56l.46-33.85h-.46L83,237.48H54.65L35.43,168.71h-.61l.46,33.85v34.92H4.18V136.84H53.88l11.59,44.67,4.42,18.75h.31l4.42-18.75,11.59-44.67h47.27Z"/><path class="cls-1" d="M235.63,211.4v26.07H150.24V136.84H233.8v26.07h-48v12.5H224.5v24.09H185.77V211.4Z"/><path class="cls-1" d="M291.74,204.08H282v33.39H247.21V136.84H301.8c26.84,0,40.71,11.28,40.71,33.7,0,14.79-6.1,24.7-18.14,29.73l23.79,37.2H309.58ZM282,180.76h12.66c9,0,12.35-2.44,12.35-9.3,0-6.71-3.35-9.3-12.35-9.3H282Z"/><path class="cls-1" d="M403.19,239C371.32,239,352,220.09,352,187.16s19.36-51.84,51.23-51.84c22.11,0,41.47,9,45.74,30.5l-30.49,11.89c-1.68-13.11-5.95-15.7-14.33-15.7-10.52,0-15.86,7.78-15.86,25.16,0,17.23,4.88,25.16,15.55,25.16,9.76,0,13.27-4.12,14.48-13.72l31.41,8.08C444.05,230.31,426.21,239,403.19,239Z"/><path class="cls-1" d="M519.83,202.56v34.92H484.3V202.56l-35.22-65.72h35.37l10.67,23,7.17,18.3,7.17-18.3,10.67-23h34.92Z"/><path class="cls-1" d="M583.74,153.92a6.87,6.87,0,0,1-7.62-7.62v-8.65h4.62v8.74a3.63,3.63,0,0,0,.8,2.52,3.28,3.28,0,0,0,4.49,0,3.71,3.71,0,0,0,.79-2.54v-8.71h4.55v8.65a6.89,6.89,0,0,1-7.64,7.62Z"/><path class="cls-1" d="M610.27,153.72h-3.43l-7.87-9,.07,8.94h-4.6v-16H599l6.75,7.73,0-7.73h4.6Z"/><path class="cls-1" d="M619.56,153.67h-6.08v-16h6.08a10.31,10.31,0,0,1,6.92,2.11,8.19,8.19,0,0,1,0,11.74A10.18,10.18,0,0,1,619.56,153.67Zm4.64-8a3.73,3.73,0,0,0-1.22-3,5.15,5.15,0,0,0-3.46-1.05H618.1v8h1.46a5,5,0,0,0,3.41-1.06A3.67,3.67,0,0,0,624.2,145.69Z"/><path class="cls-1" d="M642.43,153.67h-11v-16h10.91l.62,3.87h-7V144h5.74v3.32H636v2.51h7Z"/><path class="cls-1" d="M660.31,153.67h-5.44l-4.16-5.44h-.5v5.44h-4.62v-16h6.2a7.7,7.7,0,0,1,4.85,1.32,4.56,4.56,0,0,1,1.67,3.81,5,5,0,0,1-.77,2.72,5.31,5.31,0,0,1-2.18,1.92Zm-8.85-12.42h-1.33v3.86h1.28a2.55,2.55,0,0,0,1.7-.54,1.82,1.82,0,0,0,.63-1.45,1.69,1.69,0,0,0-.61-1.37A2.56,2.56,0,0,0,651.46,141.25Z"/><path class="cls-1" d="M681.36,137.66v4.14H676v11.87h-4.62V141.8H666v-4.14Z"/><path class="cls-1" d="M699.29,153.67h-4.64v-6H688.4v6h-4.62v-16h4.62v5.81h6.24v-5.81h4.64Z"/><path class="cls-1" d="M713.47,153.67h-11v-16H713.4l.62,3.87h-7V144h5.74v3.32H707v2.51h7Z"/><path class="cls-1" d="M736.38,137.66v4.14H731v11.87h-4.62V141.8H721v-4.14Z"/><path class="cls-1" d="M753.53,153.67h-5.44l-4.16-5.44h-.5v5.44h-4.62v-16H745a7.7,7.7,0,0,1,4.85,1.32,4.56,4.56,0,0,1,1.67,3.81,5,5,0,0,1-.77,2.72,5.31,5.31,0,0,1-2.18,1.92Zm-8.85-12.42h-1.33v3.86h1.28a2.55,2.55,0,0,0,1.7-.54,1.82,1.82,0,0,0,.63-1.45,1.69,1.69,0,0,0-.61-1.37A2.56,2.56,0,0,0,744.68,141.25Z"/><path class="cls-1" d="M762.07,153.92a6.87,6.87,0,0,1-7.62-7.62v-8.65h4.62v8.74a3.63,3.63,0,0,0,.8,2.52,3.28,3.28,0,0,0,4.49,0,3.71,3.71,0,0,0,.79-2.54v-8.71h4.55v8.65a6.89,6.89,0,0,1-7.64,7.62Z"/><path class="cls-1" d="M783.15,153.9h-.32l-5.62-10.61v10.38h-4.44v-16H779l4,8,4-8h6.22v16h-4.48V143.22Z"/><path class="cls-1" d="M809.13,143.24a5.22,5.22,0,0,1-1.82,4.2,7.31,7.31,0,0,1-4.88,1.54h-1.37v4.69h-4.62v-16h5.79a8,8,0,0,1,5.1,1.45A5,5,0,0,1,809.13,143.24Zm-7-1.9H801v4.12h1.1a2.87,2.87,0,0,0,1.87-.55,1.9,1.9,0,0,0,.66-1.56,1.79,1.79,0,0,0-.66-1.49A2.91,2.91,0,0,0,802.11,141.34Z"/><path class="cls-1" d="M593.49,180.35h-4.92l-1.08-2.75h-6.66l-1.07,2.75H575l6.75-16h5.12ZM582.12,174h4.12l-2.06-5.19Z"/><path class="cls-1" d="M601.51,180.35h-6.08v-16h6.08a10.31,10.31,0,0,1,6.92,2.11,8.19,8.19,0,0,1,0,11.74A10.18,10.18,0,0,1,601.51,180.35Zm4.64-8a3.73,3.73,0,0,0-1.22-3,5.15,5.15,0,0,0-3.46-1.05H600v8h1.46a5,5,0,0,0,3.41-1.06A3.67,3.67,0,0,0,606.16,172.37Z"/><path class="cls-1" d="M623.79,180.58h-.32L617.84,170v10.38h-4.44v-16h6.22l4,8,4-8h6.22v16h-4.48V169.9Z"/><path class="cls-1" d="M641.77,180.35h-4.62v-16h4.62Z"/><path class="cls-1" d="M660.88,180.4h-3.43l-7.87-9,.07,8.94h-4.6v-16h4.53l6.75,7.73,0-7.73h4.6Z"/><path class="cls-1" d="M668.77,180.35h-4.62v-16h4.62Z"/><path class="cls-1" d="M676.21,174.11a8.77,8.77,0,0,1-3.69-2.07,4.25,4.25,0,0,1-1.06-3,4.51,4.51,0,0,1,1.64-3.64,6.59,6.59,0,0,1,4.38-1.37,11.48,11.48,0,0,1,2.61.29,8.69,8.69,0,0,1,2.26.86v4.12h0a12.62,12.62,0,0,0-2.47-1.11,7.69,7.69,0,0,0-2.38-.44,1.89,1.89,0,0,0-1.09.26.83.83,0,0,0-.38.72,1,1,0,0,0,.48.81,9.75,9.75,0,0,0,1.92.86,9.17,9.17,0,0,1,3.76,2.07,4.3,4.3,0,0,1,1.06,3,4.57,4.57,0,0,1-1.67,3.73,6.88,6.88,0,0,1-4.51,1.37,10.24,10.24,0,0,1-2.82-.39,8.79,8.79,0,0,1-2.44-1.1l-.55-4.51.07,0a12.82,12.82,0,0,0,3,1.68,7.56,7.56,0,0,0,2.77.65,2.3,2.3,0,0,0,1.25-.28.92.92,0,0,0,.42-.82,1,1,0,0,0-.49-.85A9.61,9.61,0,0,0,676.21,174.11Z"/><path class="cls-1" d="M700,164.34v4.14h-5.37v11.87H690V168.48h-5.38v-4.14Z"/><path class="cls-1" d="M717.14,180.35H711.7l-4.16-5.44H707v5.44h-4.62v-16h6.2a7.7,7.7,0,0,1,4.85,1.32,4.56,4.56,0,0,1,1.67,3.81,5,5,0,0,1-.77,2.72,5.31,5.31,0,0,1-2.18,1.92Zm-8.85-12.42H707v3.86h1.28a2.55,2.55,0,0,0,1.7-.54,1.82,1.82,0,0,0,.63-1.45,1.69,1.69,0,0,0-.61-1.37A2.56,2.56,0,0,0,708.29,167.93Z"/><path class="cls-1" d="M735.65,180.35h-4.92l-1.08-2.75H723l-1.07,2.75h-4.78l6.75-16H729ZM724.28,174h4.12l-2.06-5.19Z"/><path class="cls-1" d="M749.94,164.34v4.14h-5.37v11.87h-4.62V168.48h-5.38v-4.14Z"/><path class="cls-1" d="M757.05,180.35h-4.62v-16h4.62Z"/><path class="cls-1" d="M768.26,180.67a8.47,8.47,0,0,1-6.15-2.38,8.39,8.39,0,0,1,0-11.87,9.11,9.11,0,0,1,12.32,0,8.38,8.38,0,0,1,0,11.87A8.53,8.53,0,0,1,768.26,180.67Zm0-12.49a3.61,3.61,0,0,0-2.77,1.19,4.19,4.19,0,0,0-1.1,3,4.23,4.23,0,0,0,1.11,3,3.87,3.87,0,0,0,5.59,0,4.14,4.14,0,0,0,1.12-3,4.19,4.19,0,0,0-1.13-3A3.73,3.73,0,0,0,768.23,168.18Z"/><path class="cls-1" d="M795.24,180.4h-3.43l-7.87-9,.07,8.94h-4.6v-16h4.53l6.75,7.73,0-7.73h4.6Z"/></g></g></svg>