<svg preserveAspectRatio="none" xmlns="http://www.w3.org/2000/svg" viewBox="0 0 371.47 290.58"><defs><style>.cls-1{fill:#050072;}.cls-2{fill:#7ad278;}.cls-3{fill:#6e28a0;}</style></defs><title>m1</title><g id="Layer_2" data-name="Layer 2"><g id="Layer_1-2" data-name="Layer 1"><path class="cls-1" d="M200.72,21.31c-5.22-6.09-15.62-6.23-22.88-7.55C168.52,12.08,159.49,12,150,12.28a422.51,422.51,0,0,1-53-1.73c-26.77-2.5-55-9.24-74.22,8.2C-2.83,42,7.35,83.77,7.53,110.93c.24,36.73-3.58,73-7.32,109.63-3.66,35.84,42.4,28.86,79.16,33.08,21.67,2.49,44,3.44,65.89,1.48,14-1.26,35.46.41,46.48-10.22,12.27-11.85,3.92-30.94,4-45.48.06-20.34,1.24-40.68,2.43-61,2-34.23,3.77-68.48,5.65-102.72.23-4.21.4-8.68-1.64-12.37A12.26,12.26,0,0,0,200.72,21.31Z"/><path class="cls-2" d="M6.68,145.52c-1.31,25-3.91,50-6.47,75-3.66,35.84,42.4,28.86,79.16,33.08,21.67,2.49,44,3.44,65.88,1.48,8-.72,17.12.85,28.67-2.25Z"/><path class="cls-3" d="M370.48,54.75C369.38,38.61,366.24,22.17,355,11,340.76-3.26,319-.78,301,2.67c-28.05,5.36-58.48,8.1-85.78,16.39-20.59,6.25-18.26,28.15-21.73,46.67a662.64,662.64,0,0,0-11.67,93q-1.26,23.36-.85,46.77c.18,10.53-4.54,23.28.68,33.21S203,255,212.79,260.34c22,11.95,46.74,28.75,72.5,30.19,30.57,1.71,45-39.89,55.76-63.58A340.44,340.44,0,0,0,371.28,75.49C371.06,69,371,61.88,370.48,54.75ZM284.25,217.38q-1.88-3.21,1.62-3Z"/></g></g></svg>
