<svg preserveAspectRatio="none" xmlns="http://www.w3.org/2000/svg" viewBox="0 0 440.7 299.6"><defs><style>.cls-1{fill:#050072;}.cls-2{fill:#3fa9f5;}.cls-3{fill:#ffaa14;}</style></defs><title>m4</title><g id="Layer_2" data-name="Layer 2"><g id="Layer_1-2" data-name="Layer 1"><path class="cls-1" d="M402.41,225c8.68-43.51-6.18-85.08-22.17-124.9C371.9,79.29,359.6,19.33,342.82,5.73c-32-25.92-125.76,42.86-140.56,71C184.69,110.06,187.55,261.86,220.42,285c24,16.89,76.9-12.08,103.12-18C354.06,260.11,399.06,264.53,402.41,225Z"/><path class="cls-2" d="M213.47,274.18c-6.51-53.63,1.52-108-4.31-162-5.22-48.3-15.79-56.75-62.9-57.83C117,53.65,67.9,25.18,42.87,32.95c-37.73,11.71-33.63,69.12-32.21,100,2.9,63-4.07,151.43,74.19,158.52C108.06,293.54,224.75,315.24,213.47,274.18Z"/><path class="cls-3" d="M113.73,232.84c-3.37-40.26-28.59-57.82-65.62-44.67-4.46,1.58-10.3,5.52-15.17,5.82-6.69.42-9.78-4.7-16.57-4.8C-4,188.87-1.54,208.44,3.64,221.72,7,230.21,13.38,236.63,14.9,246c1.19,7.3-1.38,13.85.47,21.21,4.9,19.42,23.17,28.52,41.18,31.41,18.52,3,37.14.08,46-18.88C108.43,267,114.86,246.43,113.73,232.84Z"/><path class="cls-3" d="M440.67,222.45c-1-30-24.13-65.35-57-62.74C355,162,306.32,196.66,301.1,226.25s47.11,50.42,70.62,54.57C402.68,286.27,441.78,256,440.67,222.45Z"/></g></g></svg>
