<svg preserveAspectRatio="none" xmlns="http://www.w3.org/2000/svg" viewBox="0 0 480.25 311.73"><defs><style>.cls-1{fill:#6e28a0;}.cls-2{fill:#e62882;}.cls-3{fill:#3fa9f5;}</style></defs><title>m5</title><g id="Layer_2" data-name="Layer 2"><g id="Layer_1-2" data-name="Layer 1"><path class="cls-1" d="M428.18,157.4C425.35,103.65,314.39,16.07,239.09,5.08c-134-19.55-122.68,69-120.42,129.14,1,27.1-19.35,52.52-3.17,80.13,19.43,33.16,69.08,44.5,117.65,48.14C317,268.79,431.73,224.85,428.18,157.4Z"/><path class="cls-2" d="M480.22,157.4c-1.38-49-75.9-191-142.81-147.28-53.58,35-6.93,131.39-34.56,172.27-21.45,31.73-67.6,40.27-46.37,91.42,14.88,35.86,55.39,41.74,90,36C405.83,299.93,482,221.19,480.22,157.4Z"/><path class="cls-3" d="M203.07,9.63C133-25.44,35.29,42.8,12.4,93.65-11.81,147.41-5.33,246,75.07,266.61c22,5.64,47.57,8.42,68.8-.84,17-7.4,27.39-21.46,32.48-36.6,7.56-22.52,8.8-47.22-4.47-67.74-5.57-8.62-12.24-16.65-16.23-26.11s-4.85-21.06,1-29.47c5.54-7.91,15.65-11.21,25.24-12.39s19.45-.78,28.7-3.57c14.85-4.48,22.74-19.2,22.66-34.17C233.17,36.41,220,18.11,203.07,9.63Z"/></g></g></svg>
